<?xml version="1.0" standalone="no"?>
<!DOCTYPE svg PUBLIC "-//W3C//DTD SVG 20010904//EN"
 "http://www.w3.org/TR/2001/REC-SVG-20010904/DTD/svg10.dtd">
<svg version="1.0" xmlns="http://www.w3.org/2000/svg"
 width="492.000000pt" height="310.000000pt" viewBox="0 0 492.000000 310.000000"
 preserveAspectRatio="xMidYMid meet">

<g transform="translate(0.000000,310.000000) scale(0.100000,-0.100000)"
fill="#000000" stroke="none">
<path d="M5 1550 c0 -855 1 -1205 2 -778 2 428 2 1128 0 1556 -1 427 -2 77 -2
-778z"/>
<path d="M4915 1550 c0 -855 1 -1205 2 -778 2 428 2 1128 0 1556 -1 427 -2 77
-2 -778z"/>
<path d="M2390 2460 c0 -5 -6 -10 -13 -10 -18 0 -67 -24 -67 -32 0 -5 -8 -8
-18 -8 -10 0 -24 -9 -32 -20 -8 -11 -20 -20 -26 -20 -6 0 -31 -18 -55 -40 -24
-22 -50 -40 -56 -40 -7 0 -13 -4 -13 -8 0 -4 -14 -16 -30 -26 -17 -9 -41 -28
-55 -42 -13 -13 -29 -24 -35 -24 -6 0 -20 -9 -32 -20 -12 -11 -32 -20 -45 -20
-13 0 -32 -4 -43 -10 -11 -5 -29 -14 -40 -20 -11 -5 -29 -10 -40 -10 -11 0
-20 -4 -20 -8 0 -5 -12 -15 -27 -23 -47 -24 -73 -56 -73 -89 0 -37 16 -55 65
-75 32 -14 49 -45 25 -45 -5 0 -10 -9 -10 -20 0 -11 -4 -20 -10 -20 -5 0 -10
-9 -10 -20 0 -11 -4 -20 -10 -20 -5 0 -10 -13 -10 -30 0 -47 -23 -123 -45
-148 -18 -22 -27 -24 -105 -21 -47 1 -104 1 -127 1 -41 -2 -43 -4 -43 -32 0
-23 4 -30 20 -30 11 0 20 5 20 10 0 6 27 10 60 10 33 0 60 -4 60 -10 0 -5 12
-10 26 -10 21 0 24 -3 19 -22 -6 -22 -20 -57 -34 -88 -4 -8 -14 -36 -21 -61
-12 -39 -18 -47 -51 -57 -21 -7 -48 -12 -59 -12 -11 0 -20 -4 -20 -10 0 -5 -7
-10 -16 -10 -26 0 -49 -30 -38 -48 15 -23 29 -25 47 -7 9 8 27 15 41 15 14 0
26 5 26 10 0 6 9 10 21 10 16 0 19 -4 14 -18 -13 -31 -18 -199 -6 -206 6 -4
11 -32 11 -62 0 -30 5 -54 10 -54 6 0 10 -10 10 -22 0 -22 20 -89 30 -98 10
-10 30 -50 30 -61 0 -14 178 -189 216 -212 16 -10 46 -25 67 -35 20 -9 37 -20
37 -24 0 -5 9 -8 19 -8 11 0 23 -4 26 -10 3 -5 15 -10 26 -10 18 0 58 -18 69
-31 5 -6 47 -16 110 -25 19 -3 44 -9 55 -14 11 -5 61 -12 110 -15 50 -2 107
-7 128 -11 24 -4 37 -2 37 5 0 7 36 11 110 11 67 0 110 4 110 10 0 6 27 10 60
10 33 0 60 4 60 10 0 6 12 10 26 10 14 0 37 9 51 20 14 11 39 20 54 20 16 0
29 5 29 10 0 6 9 10 19 10 11 0 36 9 58 19 21 11 53 25 71 33 17 7 32 16 32
20 0 5 9 8 20 8 11 0 20 5 20 10 0 6 8 10 18 10 10 0 24 9 32 20 8 11 20 20
26 20 17 0 104 84 104 101 0 8 9 20 20 27 11 7 20 23 20 35 0 13 3 27 7 31 5
4 9 42 10 83 1 42 4 78 7 80 2 2 18 -3 34 -11 56 -29 87 8 35 41 -16 10 -30
20 -33 23 -3 4 -12 9 -21 13 -18 6 -24 40 -35 195 -3 45 -10 82 -15 82 -5 0
-9 5 -9 10 0 6 9 10 20 10 11 0 20 -4 20 -10 0 -5 18 -10 40 -10 22 0 40 -4
40 -10 0 -5 14 -10 30 -10 17 0 30 -4 30 -10 0 -5 7 -10 16 -10 9 0 29 -14 45
-31 29 -31 30 -31 44 -13 19 25 19 25 -8 54 -26 29 -60 50 -82 50 -8 0 -15 5
-15 10 0 6 -15 10 -34 10 -19 0 -38 5 -41 10 -3 6 -24 10 -46 10 -21 0 -39 5
-39 10 0 6 -9 10 -20 10 -16 0 -20 7 -20 30 0 17 -4 30 -10 30 -5 0 -10 10
-10 23 0 12 -9 33 -20 47 -11 14 -20 32 -20 40 0 8 -9 26 -20 40 -11 14 -20
31 -20 38 0 6 -4 12 -10 12 -5 0 -10 7 -10 15 0 17 -20 56 -33 66 -5 3 -7 26
-5 50 3 42 5 44 36 47 69 7 104 74 70 134 -17 29 -77 88 -90 88 -15 0 -38 27
-38 44 0 9 -4 16 -10 16 -5 0 -10 9 -10 20 0 11 -4 20 -10 20 -5 0 -10 13 -10
29 0 17 -4 33 -10 36 -5 3 -10 17 -10 31 0 13 -4 24 -10 24 -5 0 -10 9 -10 20
0 11 -4 20 -10 20 -5 0 -10 7 -10 16 0 20 -24 44 -44 44 -9 0 -16 5 -16 10 0
6 -13 10 -30 10 -16 0 -30 4 -30 9 0 9 -33 14 -175 27 -33 3 -64 10 -70 15 -5
5 -30 9 -56 9 -26 0 -51 5 -54 10 -3 6 -33 10 -65 10 -32 0 -62 5 -65 10 -3 6
-31 10 -61 10 -30 0 -54 -4 -54 -10z m-307 -394 c15 -13 27 -32 27 -43 0 -11
9 -28 20 -38 11 -10 20 -28 20 -41 0 -13 4 -25 9 -28 4 -3 11 -18 14 -33 3
-16 14 -38 24 -50 17 -19 32 -22 139 -26 130 -6 198 -13 229 -27 11 -5 52 -11
90 -13 82 -6 105 4 175 73 50 49 81 70 105 70 8 0 15 5 15 10 0 6 7 10 15 10
8 0 24 5 34 12 29 18 97 -8 119 -44 9 -15 20 -28 24 -28 4 0 8 -13 8 -30 0
-16 5 -30 10 -30 6 0 10 -9 10 -20 0 -11 5 -20 10 -20 6 0 10 -27 10 -60 0
-33 4 -60 10 -60 6 0 10 -33 10 -79 0 -44 -4 -83 -10 -86 -5 -3 -10 -17 -10
-31 0 -13 -4 -24 -10 -24 -5 0 -10 -7 -10 -16 0 -20 -24 -44 -44 -44 -9 0 -16
-4 -16 -10 0 -5 -20 -10 -44 -10 -25 0 -48 -4 -51 -10 -3 -5 -13 -10 -21 -10
-20 0 -44 -24 -44 -44 0 -11 9 -16 30 -16 17 0 30 5 30 10 0 6 11 10 24 10 14
0 28 5 31 10 3 6 20 10 37 10 25 0 29 -3 23 -17 -4 -10 -10 -27 -13 -38 -3
-11 -14 -27 -24 -36 -10 -9 -18 -22 -18 -28 0 -25 -29 -41 -74 -41 -42 0 -46
-2 -46 -25 0 -21 5 -25 30 -25 29 0 30 -1 19 -22 -15 -28 -62 -73 -100 -95
-16 -10 -29 -21 -29 -25 0 -4 -6 -8 -12 -8 -7 0 -24 -9 -38 -20 -14 -11 -34
-20 -45 -20 -11 0 -27 -9 -35 -20 -8 -11 -20 -20 -27 -20 -7 0 -21 -4 -31 -9
-9 -5 -37 -14 -62 -21 -25 -6 -59 -16 -76 -21 -17 -5 -47 -9 -68 -9 -20 0 -47
-5 -59 -11 -16 -9 -22 -9 -25 0 -2 7 -33 11 -87 11 -46 0 -87 5 -90 10 -3 6
-17 10 -30 10 -13 0 -26 4 -29 9 -3 4 -19 11 -35 14 -16 4 -40 17 -53 29 -12
13 -39 34 -58 48 -48 33 -112 99 -129 133 -8 15 -18 27 -23 27 -4 0 -8 9 -8
20 0 11 -4 20 -10 20 -5 0 -10 7 -10 16 0 9 -9 27 -20 41 -12 16 -20 41 -20
64 l0 39 43 0 c46 1 77 18 77 44 0 13 -12 16 -70 16 l-70 0 0 60 0 60 30 0
c17 0 30 -4 30 -10 0 -5 9 -10 20 -10 11 0 20 -4 20 -10 0 -5 6 -10 13 -10 7
0 23 -9 35 -20 28 -27 72 -27 72 -1 0 19 -47 61 -69 61 -6 0 -11 5 -11 10 0 6
-9 10 -20 10 -11 0 -20 5 -20 10 0 6 -9 10 -20 10 -11 0 -20 5 -20 10 0 6 -9
10 -20 10 -11 0 -20 4 -20 9 0 5 -10 12 -22 16 -14 4 -18 8 -10 12 14 6 16 69
2 78 -5 3 -10 26 -10 50 0 24 5 47 10 50 6 3 10 15 10 26 0 10 5 19 10 19 6 0
10 6 10 13 0 8 9 22 20 32 11 10 20 26 20 37 0 10 4 18 9 18 5 0 14 14 21 30
7 17 16 30 21 30 5 0 9 9 9 20 0 11 5 20 10 20 6 0 10 6 10 13 0 19 45 67 63
67 9 0 19 5 22 10 11 18 59 10 88 -14z m-385 -568 c7 -7 12 -40 12 -78 0 -62
-2 -68 -25 -78 -32 -15 -95 -16 -95 -2 0 6 5 19 10 30 6 11 15 29 20 40 6 11
10 27 10 35 0 9 7 18 15 21 8 3 17 14 20 25 7 22 16 24 33 7z m1601 -15 c8
-16 17 -36 22 -45 5 -10 9 -29 9 -43 0 -20 -5 -25 -24 -25 -36 0 -76 17 -76
33 0 18 23 67 33 67 4 0 7 9 7 20 0 28 14 25 29 -7z m59 -213 c15 -48 16 -200
2 -200 -5 0 -10 5 -10 10 0 6 -7 10 -15 10 -8 0 -23 4 -33 9 -16 9 -69 24
-122 35 -45 10 -57 23 -42 46 6 11 12 27 12 35 0 8 5 15 10 15 6 0 10 9 10 20
0 48 20 60 100 60 l75 0 13 -40z m-1624 -15 c3 -19 9 -51 12 -70 3 -19 10 -35
15 -35 5 0 9 -9 9 -20 0 -11 5 -20 10 -20 6 0 10 -9 10 -20 0 -11 4 -20 8 -20
5 0 15 -12 23 -27 8 -16 22 -35 31 -44 23 -21 23 -49 1 -49 -19 0 -43 -41 -43
-73 0 -21 17 -55 36 -74 7 -7 31 -13 54 -13 34 0 48 6 70 30 27 29 54 39 62
23 5 -13 88 -53 108 -53 11 0 22 -4 25 -10 3 -5 24 -10 46 -10 21 0 39 -4 39
-10 0 -5 23 -10 50 -10 l50 0 0 -46 c0 -59 16 -74 78 -74 62 0 80 18 84 85 l3
50 45 8 c25 4 60 10 78 14 18 3 35 9 38 14 3 5 16 9 29 9 13 0 25 4 27 8 5 15
58 24 58 10 0 -6 10 -22 22 -35 22 -24 81 -32 93 -13 3 6 14 10 24 10 39 0 36
113 -3 125 -19 7 -19 8 -2 12 22 6 126 108 126 123 0 25 30 40 79 40 27 0 53
-4 56 -10 3 -5 18 -10 33 -10 15 0 38 -9 52 -20 14 -11 33 -20 43 -20 9 0 17
-4 17 -10 0 -5 9 -10 20 -10 17 0 20 -7 20 -52 0 -28 6 -67 13 -86 10 -28 10
-36 0 -39 -8 -3 -13 -24 -13 -56 -1 -49 -16 -87 -36 -87 -5 0 -25 -14 -44 -30
-19 -16 -42 -30 -51 -30 -8 0 -25 -9 -37 -20 -12 -11 -27 -20 -34 -20 -8 0
-20 -9 -28 -20 -8 -11 -20 -20 -27 -20 -7 0 -27 -8 -45 -19 -45 -25 -149 -61
-176 -61 -12 0 -22 -4 -22 -10 0 -5 -18 -10 -40 -10 -22 0 -40 -4 -40 -10 0
-6 -26 -10 -58 -10 -32 0 -62 -4 -67 -9 -21 -20 -355 -41 -355 -23 0 6 -15 12
-32 15 -18 4 -58 11 -88 17 -30 6 -70 13 -87 17 -18 3 -33 9 -33 14 0 5 -13 9
-30 9 -16 0 -30 5 -30 10 0 6 -13 10 -29 10 -16 0 -31 3 -33 8 -1 4 -23 18
-48 31 -25 14 -52 33 -61 43 -9 10 -22 18 -28 18 -15 0 -141 126 -141 141 0 6
-13 24 -30 39 -16 15 -30 35 -30 44 0 9 -4 16 -10 16 -5 0 -10 14 -10 30 0 17
-4 30 -9 30 -12 0 -21 71 -27 208 -6 136 4 172 51 173 16 0 39 4 50 9 11 5 32
9 46 9 23 1 28 -4 33 -34z m184 -370 c7 -14 12 -27 12 -29 0 -9 -31 -15 -45
-10 -18 7 -20 50 -2 57 21 9 23 8 35 -18z m972 -35 c0 -13 -7 -20 -20 -20 -23
0 -26 10 -8 28 18 18 28 15 28 -8z m-420 -149 c0 -11 -49 -21 -67 -14 -27 10
-12 23 27 23 22 0 40 -4 40 -9z"/>
<path d="M2202 1418 c-31 -31 -2 -92 40 -86 20 3 23 10 26 51 3 46 2 47 -25
47 -16 0 -34 -5 -41 -12z"/>
<path d="M2664 1349 c-25 -28 -8 -53 40 -57 43 -4 56 16 36 54 -16 30 -50 31
-76 3z"/>
<path d="M2418 1288 c-28 -26 -59 -38 -99 -38 -44 0 -72 -20 -63 -44 10 -26
125 -22 149 4 10 11 28 20 39 20 12 0 28 -9 36 -20 8 -11 22 -20 32 -20 10 0
18 -4 18 -10 0 -5 13 -10 29 -10 17 0 33 -4 36 -10 10 -16 52 -12 59 6 8 21 9
18 -13 42 -12 15 -30 22 -55 22 -20 0 -36 5 -36 10 0 6 -7 10 -15 10 -9 0 -27
11 -41 25 -27 27 -55 32 -76 13z"/>
<path d="M4450 1880 c0 -5 5 -10 10 -10 6 0 10 5 10 10 0 6 -4 10 -10 10 -5 0
-10 -4 -10 -10z"/>
<path d="M4722 1238 c-7 -7 -12 -18 -12 -26 0 -8 -8 -22 -18 -31 -9 -9 -23
-28 -31 -43 -8 -16 -18 -28 -23 -28 -4 0 -8 -9 -8 -20 0 -11 -4 -20 -10 -20
-5 0 -10 -13 -10 -29 0 -16 -5 -31 -10 -33 -12 -4 10 -58 23 -58 4 0 7 -9 7
-20 0 -11 5 -20 10 -20 6 0 10 -7 10 -16 0 -9 12 -28 28 -42 15 -15 33 -39 41
-54 18 -35 71 -41 71 -8 0 11 5 20 10 20 6 0 10 9 10 20 0 11 5 20 10 20 6 0
10 8 10 18 0 10 9 24 20 32 11 8 20 22 20 32 0 10 5 18 10 18 6 0 10 27 10 60
0 33 -4 60 -10 60 -5 0 -10 8 -10 18 0 10 -9 24 -20 32 -11 8 -20 20 -20 28 0
7 -7 20 -15 29 -9 8 -19 28 -22 44 -7 38 -23 37 -23 -1 0 -16 5 -30 10 -30 6
0 10 -8 10 -18 0 -10 9 -24 20 -32 11 -8 20 -24 20 -35 0 -12 9 -31 20 -43 12
-13 20 -35 20 -56 0 -25 -6 -40 -20 -48 -11 -7 -20 -21 -20 -30 0 -10 -4 -18
-10 -18 -5 0 -10 -11 -10 -25 0 -14 -9 -35 -20 -47 -11 -12 -20 -28 -20 -35 0
-7 -3 -13 -6 -13 -9 0 -34 28 -34 38 0 5 -13 23 -30 40 -16 18 -30 38 -30 45
0 7 -9 19 -20 27 -15 11 -20 26 -20 62 0 26 5 48 10 48 6 0 10 9 10 20 0 11 5
20 10 20 6 0 10 7 10 16 0 9 8 24 18 33 18 17 37 51 47 89 7 25 4 27 -13 10z"/>
<path d="M250 1156 c0 -17 -62 -86 -77 -86 -6 0 -27 -16 -47 -35 -40 -39 -46
-73 -16 -95 21 -15 27 -54 10 -65 -15 -9 -12 -54 4 -71 17 -16 66 -19 66 -4 0
6 10 10 23 10 13 0 33 9 45 20 22 21 52 27 52 10 0 -5 23 -10 50 -10 l50 0 0
60 c0 33 4 60 10 60 14 0 12 46 -2 73 -23 39 -51 67 -70 67 -10 0 -18 7 -18
15 0 20 -45 65 -65 65 -8 0 -15 -6 -15 -14z m40 -31 c0 -8 5 -15 10 -15 6 0
10 -7 10 -15 0 -9 8 -19 17 -22 23 -9 83 -69 83 -84 0 -6 -10 -21 -22 -32 -16
-13 -19 -21 -10 -24 7 -3 12 -22 12 -44 0 -37 -2 -39 -30 -39 -16 0 -30 3 -30
8 0 4 -12 12 -26 19 -24 11 -29 10 -54 -17 -16 -17 -35 -30 -44 -30 -9 0 -16
-4 -16 -10 0 -16 -30 -12 -48 7 -12 12 -13 18 -4 21 7 2 12 22 12 50 0 36 -5
50 -20 60 -11 7 -20 19 -20 28 0 9 9 18 20 21 11 3 20 9 20 14 0 5 6 9 14 9
19 0 86 66 86 84 0 13 13 23 33 25 4 1 7 -6 7 -14z"/>
</g>
</svg>
